<svg id="Capa_1" enable-background="new 0 0 607.814 607.814" height="512" viewBox="0 0 607.814 607.814" width="512" xmlns="http://www.w3.org/2000/svg"><g><g id="Page-1_26_"><g id="_x30_27---Wetsuit"><path id="Shape_88_" d="m454.827 96.772c-21.152-42.212-34.22-56.252-69.898-56.252-5.473.349-10.831-1.674-14.709-5.551-3.878-3.878-5.9-9.236-5.551-14.709.001-4.362-2.79-8.235-6.929-9.613-17.417-5.852-35.517-9.43-53.851-10.647-18.334 1.217-36.434 4.795-53.851 10.647-4.091 1.401-6.863 5.219-6.929 9.543.367 5.484-1.647 10.86-5.527 14.753s-9.248 5.926-14.733 5.578c-35.678 0-48.746 14.04-69.847 56.252l-42.597 85.305c-6.834 13.708-2.417 30.36 10.312 38.879l29.043 19.359c13.965 9.308 32.831 5.535 42.141-8.428l14.182-21.212c2.292 20.048 1.265 40.337-3.039 60.051-3.14 11.042-7.091 23.015-11.305 35.688-21.739 65.621-51.491 155.485-23.046 278.17 3.201 13.668 15.431 23.304 29.468 23.218h65.633c16.397.107 29.885-12.887 30.39-29.276.901-31.937 4.155-63.764 9.735-95.223 5.58 31.459 8.834 63.286 9.735 95.223.5 16.393 13.99 29.393 30.39 29.286h65.633c14.065.117 26.335-9.525 29.549-23.218 28.435-122.685-1.317-212.549-23.056-278.171-4.194-12.673-8.165-24.646-11.305-35.678-4.304-19.718-5.33-40.01-3.039-60.061l14.182 21.212c9.31 13.963 28.176 17.737 42.141 8.428l29.043-19.359c12.688-8.56 17.046-25.21 10.181-38.889zm-232.08 83.837c-6.078-36.468-8.418-61.013-4.873-83.451 3.693.38 7.291 1.408 10.626 3.039 22.894 13.44 48.847 20.794 75.388 21.364 26.55-.534 52.521-7.857 75.439-21.273 3.333-1.636 6.932-2.666 10.626-3.039 3.546 22.438 1.195 47.003-4.873 83.451-2.809 16.869-4.343 33.926-4.589 51.025-5.229.866-10.523 1.289-15.823 1.266-8.989.186-17.758-2.798-24.768-8.428-21.417-15.776-50.608-15.776-72.025 0-7.01 5.63-15.779 8.614-24.768 8.428-5.303-.007-10.596-.461-15.823-1.357-.246-17.099-1.78-34.156-4.589-51.025zm39.882-152.64c13.385-4.251 27.243-6.84 41.26-7.709 14.017.869 27.874 3.458 41.26 7.709 2.647 16.905 16.135 30.034 33.105 32.224 2.625 5.585 4.922 11.318 6.878 17.17-5.165.82-10.175 2.419-14.861 4.741-20.122 11.97-42.977 18.579-66.382 19.196-23.405-.617-46.26-7.226-66.382-19.196-4.686-2.322-9.696-3.92-14.861-4.741 1.956-5.853 4.253-11.586 6.878-17.17 16.971-2.19 30.458-15.319 33.105-32.224zm-87.625 192.674c-3.101 4.653-9.385 5.913-14.04 2.816l-29.053-19.369c-4.243-2.839-5.711-8.392-3.424-12.956l42.648-85.305c14.861-29.722 22.965-40.004 35.354-43.417-13.979 35.506-12.723 66.595-4.407 117.62zm158.86 357.196c-1.175-34.503-5.43-98.029-20.564-135.885-1.535-3.853-5.263-6.381-9.411-6.381-4.147 0-7.876 2.528-9.411 6.381-15.134 37.856-19.389 101.382-20.564 135.885-.187 5.447-4.681 9.752-10.13 9.705h-2.32c-22.924-107.47 5.572-154.463 15.104-166.447 6.188-9.093 16.131-14.928 27.088-15.894 10.946.972 20.878 6.807 27.057 15.894 9.532 11.984 38.008 58.977 15.104 166.447h-1.834c-5.445.041-9.933-4.263-10.119-9.705zm85.558 2.157c-1.142 4.473-5.19 7.588-9.806 7.547h-43.043c15.59-77.08 8.357-143.411-19.997-179.049-9.83-13.796-25.339-22.443-42.242-23.552h-1.378c-16.901 1.107-32.41 9.75-42.242 23.542-28.364 35.638-35.587 101.969-19.997 179.049h-42.546c-4.615.044-8.661-3.074-9.796-7.547-27.169-117.134 1.56-203.878 22.529-267.211 4.265-12.885 8.297-25.052 11.569-36.468 2.139-7.907 3.517-16.001 4.113-24.17 5.475.75 10.996 1.122 16.522 1.114 12.988.186 25.665-3.979 36.012-11.832 14.6-11.236 34.935-11.236 49.536 0 10.347 7.853 23.024 12.018 36.012 11.832 5.53.001 11.054-.378 16.532-1.135.597 8.173 1.974 16.27 4.113 24.18 3.272 11.437 7.304 23.603 11.569 36.468 20.97 63.355 49.699 150.098 22.54 267.232zm56.445-375.906-29.053 19.369c-4.655 3.097-10.939 1.836-14.04-2.816l-27.078-40.611c8.317-51.025 9.573-82.114-4.407-117.62 12.389 3.414 20.493 13.696 35.354 43.417l42.648 85.305c2.286 4.564.819 10.117-3.424 12.956z"/></g></g></g></svg>