<svg id="Componente_1_1" data-name="Componente 1 – 1" xmlns="http://www.w3.org/2000/svg" width="144.377" height="158.819" viewBox="0 0 144.377 158.819">
  <g id="Grupo_64" data-name="Grupo 64" transform="translate(-235.623 -20)">
    <g id="noun_MTB_1272650" transform="translate(227.608 26.61)">
      <path id="Caminho_1266" data-name="Caminho 1266" d="M152.392,120.438a5.66,5.66,0,0,1-2.166-1.756,25.386,25.386,0,0,0,.542-11.065,27.531,27.531,0,0,0-27.437-22.833,36,36,0,0,0-4.332.351,30.743,30.743,0,0,0-5.415,1.405L103.836,67.57l12.816-2.283-.9-5.269-4.332.7c-3.791-1.932-10.469-4.391-13.357-5.621-2.888-1.405-1.444-1.581-8.123-5.269,2.166-4.567,6.137-7.728,9.928-11.065,1.083-2.635-.361-7.2,2.708-8.08.722-.176,2.708-1.229,3.61-1.405a4.98,4.98,0,0,0,3.069,1.756c1.083-.176,2.347-.7,7.04-4.04.9-3.864,1.083-3.337,1.444-5.094,2.527.527,3.61,1.054,5.776,1.229a2.147,2.147,0,0,0,.9-.878c-2.347-9.66-7.581-16.335-19.495-15.632-1.625,1.581-3.43,3.688-3.249,6.323,0,.878.9,1.229.9,2.108a9.736,9.736,0,0,1-1.444,4.918,5.807,5.807,0,0,1-4.693,1.405c-1.083-.176-1.625-1.932-9.386-.7C76.58,22.43,72.248,34.549,59.612,44.209c-2.527,2.81-5.6,7.553-4.513,13.173.722,3.864,3.791,6.323,4.874,10.539,1.083,3.688,6.137,14.227,5.957,16.159,0,.527-.542,1.229-1.264,2.108l-6.318,2.986L48.782,75.649q3.52-.527,8.664-1.054h0s1.083-1.405.542-2.459A2.133,2.133,0,0,0,56,71.258H50.045c-1.805,0-3.791.176-5.415.176a23.9,23.9,0,0,1-4.152-.176,4.69,4.69,0,0,1-1.264-.351,9.708,9.708,0,0,0-3.069-.7,2.086,2.086,0,0,0-1.986,1.054c-1.083,2.108,1.083,6.147,2.708,7.728.181,0,.181.176.361.176h0a4.238,4.238,0,0,0,1.625-.527c.9-.351,1.986-.7,3.61-1.229L53.656,93.565l-5.415,7.9c-3.791-1.756-8.123-3.513-16.787-2.459C16.291,100.063,6,114.466,8.349,129.22a27.531,27.531,0,0,0,27.437,22.833c1.444,0,83.394.351,116.607,0Zm-32.31-28.981a20.156,20.156,0,0,1,3.249-.176,20.556,20.556,0,0,1,20.758,23.887c-.542,0-1.083.176-1.805.176a8.46,8.46,0,0,0,1.083,2.283,19.18,19.18,0,0,1-2.166,4.742,5.006,5.006,0,0,1-3.249-2.635c-.9,2.283-1.986,4.742-1.986,4.742l-6.859,4.567L115.749,130.8a20.025,20.025,0,0,1-13.177-15.983,20.28,20.28,0,0,1,8.664-19.848l6.859,13.349a5.364,5.364,0,0,0-.9,4.391,6.356,6.356,0,0,0,6.318,5.269h.9a6.173,6.173,0,0,0,5.235-7.026,6.481,6.481,0,0,0-6.137-5.269l-6.679-13.173A8.79,8.79,0,0,1,120.082,91.457ZM64.486,117.8h0a37.6,37.6,0,0,1-2.708-2.635,36.529,36.529,0,0,0-2.347-4.567c.9-1.405,2.527-4.215,3.249-5.269l6.679,9.485a9.862,9.862,0,0,0-.722,2.459ZM41.742,121.14l7.942-11.417a14.24,14.24,0,0,1,2.347,2.283c-1.264,1.229-2.527,2.986-2.527,4.215.181.176,2.527,1.405,5.415,2.986ZM80.37,85.485c-.9,2.986-3.069,6.147-3.249,9.66a97.357,97.357,0,0,1-1.444,14.578,10.373,10.373,0,0,0-2.166.7l-7.4-10.539A140.5,140.5,0,0,1,75.5,87.593Zm1.805,21.955a100.575,100.575,0,0,1,5.415-16.159C89.4,87.417,91.562,83.9,91.2,82.85a8.414,8.414,0,0,0-.722-1.932l9.567-4.391ZM80.19,50.532c-.9,2.635,1.264,3.513,8.3,8.255,8.484,3.162,4.513,1.581,11.011,4.04l-4.874.527,4.152,7.026L88.493,75.122a57.989,57.989,0,0,0-13-20.2C78.746,52.113,78.926,51.059,80.19,50.532ZM75.858,78.284c.542.176,1.083.7,1.986,1.756l-1.625.7A8.324,8.324,0,0,1,75.858,78.284ZM57.085,98.658c-.722,2.283-1.625,4.567-2.166,6.674-.542-.527-1.083-.878-1.444-1.229Zm-21.3,46.9a20.655,20.655,0,0,1-20.758-17.213c-1.805-11.065,6.137-21.428,17.509-23.36a18.987,18.987,0,0,1,11.913,1.581l-8.664,12.471H34.7a6.173,6.173,0,0,0-5.235,7.026,6.356,6.356,0,0,0,6.318,5.269h.9a6.293,6.293,0,0,0,5.054-4.04L56.724,125A20.449,20.449,0,0,1,52.753,137.3C49.5,141.515,44.63,145.555,35.786,145.555Zm41.155-10.187c-2.708.176-.542,2.635-1.264,3.864-6.679.7-15.343,2.283-15.343,1.229-.9.527-1.805,1.054-2.888,1.581,4.513-4.567,6.318-11.944,5.957-18.091h.181c1.444.878,2.527,1.405,2.527,1.405s1.264-1.229,1.264-1.932h0L69,123.248a9.339,9.339,0,0,0,8.3,4.918,8.565,8.565,0,0,0,7.762-3.864,11.513,11.513,0,0,0,1.625-3.337c1.083-.176,4.332-.351,4.332-.351.181-.878-.9-3.337-4.332-3.864a8.815,8.815,0,0,0-1.264-2.986l18.592-32.318,3.971,7.9a26.655,26.655,0,0,0-.542,44.964,34.587,34.587,0,0,1-6.859,2.81C93.006,136.246,85.425,135.719,76.941,135.367Z" transform="translate(0)" fill="#dfdfdf"/>
    </g>
    <text id="A" transform="translate(262 62)" fill="#dfdfdf" font-size="40" font-family="Poppins-Italic, Poppins" font-style="italic"><tspan x="0" y="0">A</tspan></text>
    <text id="J" transform="translate(348 97)" fill="#dfdfdf" font-size="40" font-family="Poppins-Italic, Poppins" font-style="italic"><tspan x="0" y="0">J</tspan></text>
  </g>
</svg>
